<?xml version="1.0" encoding="utf-8"?>
<!-- Generator: Adobe Illustrator 15.0.0, SVG Export Plug-In . SVG Version: 6.00 Build 0)  -->
<!DOCTYPE svg PUBLIC "-//W3C//DTD SVG 1.1//EN" "http://www.w3.org/Graphics/SVG/1.1/DTD/svg11.dtd">
<svg version="1.1" id="Layer_1" xmlns="http://www.w3.org/2000/svg" xmlns:xlink="http://www.w3.org/1999/xlink" x="0px" y="0px"
	 width="795px" height="830px" viewBox="0 0 795 830" enable-background="new 0 0 795 830" xml:space="preserve">
<path d="M488,663c-0.232,0.064-0.429-0.012-0.595-0.168C487.604,662.885,487.804,662.953,488,663z M734,361
	c1.936,2.063,6.092,1.908,9,3c-9.337,10.33-21.007,18.326-30,29c3.475,2.192,6.598,4.735,11,6c-10.381,10.952-23.714,18.953-36,28
	c2.431,3.569,10.047,1.953,14,4c-10.574,7.759-21.81,14.857-33,22c2.449,3.551,7.751,4.249,12,6c-13.101,8.899-28.517,15.483-44,22
	c2.248,5.752,10.648,5.352,13,11c-13.98,3.02-24.968,9.032-39,12c2.376,5.623,8.267,7.732,12,12c-11.999,4.668-25.749,7.584-38,12
	c2.053,3.279,6.848,3.818,10,6c-12.878,6.455-26.979,11.688-40,18c2.563,2.771,5.934,4.732,10,6c-10.586,6.414-24.519,9.48-37,14
	c0.88,2.785,1.248,6.084,3,8c-13.513,2.486-28.465,3.535-43,5c-0.802,3.469,1.489,3.844,1,7c6.658-2.342,13.211-4.789,19-8
	c3.146,1.521,2.045,7.287,3,11c10.7-1.301,17.711-6.289,28-8c0.726,3.059-1.726,2.941-1,6c8.546-2.121,15.247-6.086,24-8
	c0.769,3.768-1.22,4.779-1,8c10.086-1.248,17.832-4.836,27-7c-1.203,3.129-1.997,6.67-3,10c10.564-2.102,19.884-5.449,30-8
	c-0.606,3.061-2.123,5.209-3,8c6.832,1.152,16.784-3.205,26-3c-1.315,2.684-2.685,5.314-4,8c9.791,1.781,22.906-1.754,33-3
	c-1.246,2.42-2.476,4.857-3,8c6.676,2.324,17.66,0.34,26,1c0.101,3.1-1.223,4.777-2,7c4.962,0.412,16.887-0.289,25,0
	c-0.957,2.043-2.043,3.957-3,6c13.934,7.398,35.4,7.266,49,15c-18.191,1.475-34.645,4.688-52,7c-0.399,3.133,5.055,5.521,3,7
	c-8.333,0-16.667,0-25,0c-0.617,4.283,3.256,4.076,3,8c-10.685,0.018-19.693-1.641-30-2c-1.241,2.615,4.072,7.23,6,10
	c-8.013,1.002-20.389-2.27-29-4c-2.509,3.238,1.325,6.816,1,11c-9.066-1.934-16.934-5.066-26-7c0.645,3.688,1.026,7.641,3,10
	c-9.743,0.402-20.338-6.99-31-9c-0.379,4.379,2.858,5.141,3,9c-9.311-3.357-18.242-7.092-28-10c-1.514,0.936,1.724,5.543,3,7
	c-6.887,0.207-16.078-5.914-25-7c-1.835,0.941,1.543,5.045,1,8c-9.357-3.311-16.617-8.717-26-12c-2.964,1.453,1.317,3.9,0,7
	c-7.299-3.369-15.717-5.617-22-10c-1.4-0.387-1.597,3.887-0.595,4.832C479.151,660.6,469.646,651.707,461,647
	c-1.646,0.135-1.646,6.863,0,7c-6.25-1.76-14.636-10.023-22-14c-1.086,0.246-0.678,1.988-2,2c-0.895,4.561,3.288,4.045,6,5
	c0.127,1.793-1.225,2.109-1,4c7.77,3.23,15.565,6.434,25,8c0.473,3.139-2.691,2.641-3,5c4.274,2.725,9.274,4.725,15,6
	c0.305,2.637-2.088,2.578-4,3c3.348,3.984,9.589,5.078,15,7c-0.729,2.271-3.009,2.99-5,4c4.138,3.861,10.498,5.502,16,8
	c0.031,3.031-5.031,0.969-5,4c4.975,3.359,9.14,7.525,15,10c-0.3,2.699-4.207,1.793-5,4c4.703,3.295,9.116,6.883,15,9
	c-1.331,2.002-4.438,2.227-7,3c3.225,4.775,8.771,7.229,14,10c-0.233,3.1-3.547,3.119-6,4c4.142,4.523,8.478,8.855,14,12
	c-0.355,2.645-5.096,0.904-6,3c3.702,3.297,7.082,6.918,11,10c-1.232,1.434-3.438,1.895-6,2c5.711,8.955,10.25,19.082,17,27
	c-8.444-2.563-18.648-12.014-27-18c-1.486,0.848-1.447,3.219-2,5c-4.104-3.23-6.365-8.303-11-11c-1.434,1.232-1.895,3.438-2,6
	c-4.329-4.338-7.281-10.053-12-14c-1.483,0.85-2.15,2.516-2,5c-3.943-4.725-7.026-10.307-10-16c-3.314,0.018-1.016,5.65-3,7
	c-4.421-4.58-7.583-10.418-11-16c-2.154,0.846-1.613,4.387-3,6c-3.917-5.416-6.228-12.439-9-19c-2.812-0.146-2.884,2.449-3,5
	c-3.312-3.689-4.234-9.766-6-15c-3.034-0.367-2.076,3.258-3,5c-3.758-4.242-4.703-11.297-7-17c-2.53,0.803-2.55,4.115-4,6
	c-2.584-4.416-3.707-10.293-5-16c-2.545,0.121-3.878,1.455-4,4c-2.25-4.75-2.312-11.689-4-17c-1.711-0.045-2.59,0.742-3,2
	c-2.57-4.098-3.218-10.117-4-16c-1.506-3.121-4.314,2.939-6,0c0.141-5.475-1.154-9.514-2-14c-3.541-0.541-2.459,3.541-6,3
	c-0.263-5.072-1.044-9.623-2-14c-0.687,61.354,4.644,125.355,5,189c-4.009-1.975-13.405-0.918-15,0
	c-1.412-62.08,4.472-125.529,5-189c-2.181,3.484-2.235,9.098-3,14c-3.14,0.473-2.642-2.691-5-3c-3.254,2.412-2.302,9.031-3,14
	c-2.039,2.008-1.961-0.443-4-1c-3.13,4.203-3.534,11.133-5,17c-1.313-0.354-1.573-1.762-3-2c-2.963,4.037-3.257,10.742-4,17
	c-1.762-0.906-1.652-3.682-4-4c-2.509,4.49-4.007,9.992-5,16c-2.53-0.805-2.55-4.117-4-6c-3.321,4.678-4.45,11.549-7,17
	c-2.341-0.326-0.971-4.363-3-5c-2.88,4.119-4.217,9.781-6,15c-2.029-0.639-0.659-4.676-3-5c-3.917,5.416-6.228,12.438-9,19
	c-2.422-0.578-2.224-3.777-3-6c-4.567,4.766-7.829,10.838-11,17c-2.833-0.834-1.189-6.145-3-8c-4.059,4.607-7.043,10.289-10,16
	c-1.486-0.848-1.447-3.221-2-5c-5.616,3.051-8.624,8.709-12,14c-1.434-1.232-1.895-3.439-2-6c-5.323,2.01-7.957,6.709-11,11
	c-1.483-0.85-2.15-2.518-2-5c-9.613,6.053-17.981,13.352-28,19c6.105-8.563,10.675-18.658,17-27c-1.233-1.434-3.439-1.895-6-2
	c3.94-3.395,7.857-6.811,11-11c-1.01-1.656-4.247-1.086-6-2c4.649-4.018,8.949-8.385,14-12c-0.99-2.678-6.092-1.242-6-5
	c5.425-2.242,9.581-5.752,14-9c-1.331-2.002-4.439-2.229-7-3c4.843-3.156,9.27-6.73,15-9c0.212-3.213-3.566-2.434-5-4
	c4.902-3.432,9.012-7.654,15-10c0.701-3.701-3.506-2.494-5-4c4.408-3.592,10.676-5.324,16-8c-0.789-2.211-3.498-2.504-5-4
	c4.11-3.225,10.602-4.064,15-7c-0.315-2.352-4.74-0.594-4-4c5.991-0.676,9.261-4.072,15-5c0.541-3.541-3.541-2.459-3-6
	c9.698-0.969,15.712-5.621,25-7c0.826-2.826-1.409-2.592-1-5c2.357-0.977,6.343-0.324,6-4c-0.529-0.805-1.043-1.623-1-3
	c-7.68,3.986-14.108,9.225-21,14c-2.236-0.432-0.405-4.93-1-7c-10.168,4.832-17.941,12.059-28,17c1.02-1.314,0.98-3.688,2-5
	c-9.573,1.426-15.425,6.574-24,9c-0.58-3.246,0.681-4.652,1-7c-9.953,2.713-17.169,8.164-26,12c-2.341-1.447,0.636-5.953,1-8
	c-9.94,1.393-17.274,5.393-26,8c1.315-2.686,2.685-5.316,4-8c-10.284,2.383-18.939,6.393-28,10c-1.964-1.387,2.1-5.166,2-8
	c-9.425-0.084-20.019,7.309-31,9c1.66-3.34,2.34-7.66,4-11c-9.641,1.691-17.586,5.08-27,7c0.839-2.828,1.161-6.172,2-9
	c-9.352-2.342-20.007,2.65-30,3c2.224-3.443,4.507-6.826,7-10c-8.959-2.281-20.253,1.738-31,1c-0.003-3.336,3.253-3.414,3-7
	c-6.011-2.322-16.325-0.342-24-1c-4.378-0.096,1.875-4.041,2-6c-15.615-4.387-34.094-5.906-52-8c13.862-7.139,33.472-8.529,49-14
	c-0.445-2.555-1.402-4.598-3-6c5.762-1.742,18.21-1.559,24,0c2.084-2.203-1.582-4.295-1-8c8.667,0,17.333,0,26,0
	c0.295-3.963-1.222-6.111-3-8c8.902-0.895,21.678,2.98,33,3c-0.775-3.225-2.09-5.91-4-8c7.623-1.943,17.939,2.049,26,3
	c0.379-4.379-2.858-5.143-3-9c9.704,2.629,19.214,5.453,29,8c2.289-2.033-1.959-5.984-1-10c7.978,2.688,16.092,5.242,25,7
	c2.804-1.6-1.404-4.502,0-8c8.326,2.006,15.328,5.338,23,8c3.038-1.232-1.084-3.439,0-6c9.888,1.777,17.112,6.221,27,8
	c2.471-2.195,1.152-8.182,3-11c6.449,2.551,12.846,5.154,19,8c1.434-1.232,1.895-3.439,2-6c-13.223-2.777-27.847-4.154-43-5
	c1.345-2.322,1.655-5.678,3-8c-11.047-5.953-25.157-8.844-37-14c2.987-2.346,6.705-3.963,10-6c-11.876-7.457-25.949-12.719-40-18
	c2.053-3.281,6.848-3.818,10-6c-10.981-5.686-24.705-8.629-38-12c2.848-5.152,8.945-7.055,12-12c-12.139-5.528-26.854-8.479-39-14
	c3.948-3.052,8.14-5.859,13-8c-12.908-9.759-31.207-14.127-44-24c4.405-1.262,8.254-3.079,12-5c-9.821-8.512-21.452-15.214-33-22
	c3.094-2.906,9.84-2.16,14-4c-11.228-10.438-25.378-17.956-36-29c4.87-0.464,6.286-4.381,11-5c-8.155-11.512-19.769-19.565-30-29
	c1.709-2.291,5.635-2.365,9-3c-7.254-10.412-17.08-18.254-26-27c1.179-2.821,4.958-3.042,8-4c-13.014-22.653-29.041-42.292-44-63
	c20.686,10.649,44.546,26.786,66,40c2.236-0.431,0.405-4.929,1-7c10.872,5.462,19.463,13.203,30,19c1.9-2.434,0.683-7.984,2-11
	c12.484,10.516,24.585,21.415,37,32c2.315-4.019,0.347-12.32,1-18c10.982,11.018,20.795,23.205,31,35c3.633-3.033,3.029-10.305,5-15
	c10.013,11.653,18.027,25.307,28,37c1.837-4.497,0.834-11.833,2-17c9.525,13.142,18.64,26.693,28,40c1.99-3.677,2.75-8.583,4-13
	c7.7,13.3,15.049,26.951,22,41c3.866-3.134,4.797-9.203,7-14c8.444,9.223,11.666,23.667,19,34c2.322-3.011,3.547-7.12,5-11
	c7.219,12.114,12.824,25.843,20,38c2.663-2.671,5.285-5.382,7-9c5.384,13.615,10.333,27.666,15,42c3.563-0.771,3.767-4.9,6-7
	c3.178,3.488,4.869,8.463,7,13c3.667,0,7.333,0,11,0c-8.626-15.707-21.612-27.055-30-43c3.998-0.002,6.002-1.998,10-2
	c-4.272-15.395-11.959-27.374-17-42c4.667,0,9.333,0,14,0c-3.13-11.586-14.65-23.313-20-36c5.017-1.317,11.246-1.421,16-3
	c-6.656-16.677-14.579-32.088-21-49c5.981,1.686,13.852,1.481,20,3c-5.78-16.554-13.579-31.088-19-48c5.292,3.042,12.708,3.958,18,7
	c-3.197-15.172-10.089-35.219-16-51c5.946-0.598,13.868,5.454,21,7c-1.079-15.258-6.862-34.47-11-50c4.95,0.065,13.748,4.907,20,7
	c-0.43-15.906-6.338-34.993-10-51c4.775-0.092,12.939,5.049,19,7c1.823-17.178,2.105-35.895,2-55c4.307,2.026,8.113,4.553,12,7
	c2.066-14.268,2.75-29.917,4-45c2.995,3.339,5.866,6.801,9,10c8.235-29.099,15.296-59.371,22-90c9.924,27.742,15.541,59.792,23,90
	c4.654-1.347,5.733-6.267,9-9c3.659,12.007,3.111,28.222,4,43c3.487,1.107,8.35-4.041,12-6c1.555,17.445,1.764,36.236,2,55
	c6.788-2.212,13.304-4.697,19-8c-1.367,15.302-7.311,34.687-10,52c7.388-1.946,14.054-4.613,20-8c-1.367,15.302-8.031,33.966-11,51
	c8.271-1.729,14.207-5.794,22-8c-6.249,16.418-10.588,34.745-17,51c5.096,0.864,11.93-4.567,19-5c-6.107,15.559-12.533,30.801-19,46
	c4.153,1.128,13.729-0.919,19-2c-3.644,15.025-13.398,32.6-20,48c3.176,3.49,11.164,2.169,16,4c-6.254,12.412-14.033,23.3-21,35
	c3.286,2.047,10.127,0.54,15,1c-5.136,14.198-12.13,26.537-17,41c2.359,1.974,6.312,2.355,10,3c-8.529,15.471-20.519,27.481-30,42
	c1.387,2.279,6.961,0.373,10,1c3.35-3.318,4.825-8.508,7-13c3.157,1.176,3.479,5.186,6,7c5.881-13.119,10.863-27.137,15-42
	c2.663,2.671,5.284,5.382,7,9c8.248-11.086,13.912-24.755,20-38c2.501,2.832,3.969,6.698,5,11c8.996-9.004,11.004-24.996,20-34
	c1.685,4.982,3.798,9.535,6,14c7.866-13.134,15.539-26.461,22-41c3.218,2.782,2.669,9.331,5,13c9.109-13.225,18.879-25.788,27-40
	c2.421,3.912,2.005,10.661,2,17c10.929-10.738,18.959-24.374,28-37c3.302,3.365,2.676,10.657,5,15c11.092-10.909,20.911-23.09,31-35
	c2.315,4.018,0.347,12.319,1,18c13.196-9.804,25.287-20.713,37-32c2.369,1.965,2.035,6.632,2,11c11.663-5.004,19.667-13.666,31-19
	c0,2.333,0,4.666,0,7c22.298-13.368,44.714-26.62,66-41c-11.1,20.235-30.097,41.235-43,63c1.632,2.368,5.871,2.129,8,4
	C751.919,343.585,742.081,351.414,734,361z M325.089,616.742c-1.564-0.002-3.194,0.006-4.886,0.023
	c0.382-0.047,0.766-0.098,1.139-0.146l-2.497,0.162c-54.591,0.697-169.686,10.127-212.704,13.797l-20.438,1.326
	c0,0,3.604-0.148,9.949-0.424c-3.995,0.348-6.202,0.545-6.202,0.545l12.978-0.842c43.094-1.916,158.358-7.426,212.7-13.795
	L325.089,616.742z M331.52,566.551c-1.676-1.695-3.432-3.453-5.262-5.27c0.454,0.369,0.91,0.738,1.354,1.098l-2.823-2.555
	C265.629,501.346,133.736,385.452,84.31,342.271l-23.107-20.905c0,0,3.997,3.766,11.048,10.383c-4.596-4.004-7.14-6.212-7.14-6.212
	l14.673,13.274c47.93,44.894,176.477,164.613,240.476,217.552L331.52,566.551z M360,645c3.935-2.066,10.911-1.088,12-6
	C367.557,637.531,362.905,641.881,360,645z M375,646.139c-0.725,0.691-1.475,1.418-2.245,2.176c0.143-0.201,0.282-0.404,0.42-0.602
	l-1.038,1.215c-24.781,24.604-71.211,81.902-88.459,103.416l-8.499,9.938c0,0,1.562-1.693,4.3-4.686
	c-1.598,2.002-2.476,3.113-2.476,3.113l5.397-6.311c18.563-20.355,67.936-75.057,88.458-103.416L375,646.139z M397.052,83.449
	V56.445c0,0-0.102,4.597-0.271,12.918c-0.261-13.192-0.426-20.682-0.426-20.682v42.529c-1.683,89.588-5.44,329.251,0,442.582v5.197
	c0.047-0.783,0.093-1.58,0.139-2.377c0.177,3.51,0.362,6.896,0.558,10.141v-20.727C402.491,412.698,398.733,173.038,397.052,83.449z
	 M424,639c0.924,5.076,8.477,3.523,12,6C433.392,641.584,428.235,637.738,424,639z M423.259,648.928l-1.038-1.215
	c0.138,0.197,0.277,0.4,0.42,0.602c-0.771-0.758-1.521-1.484-2.245-2.176l4.142,4.844c20.522,28.359,69.895,83.061,88.458,103.416
	l5.397,6.311c0,0-0.878-1.111-2.476-3.113c2.738,2.992,4.3,4.686,4.3,4.686l-8.499-9.938
	C494.47,730.83,448.04,673.531,423.259,648.928z M465.127,616.781l-2.496-0.162c0.373,0.049,0.756,0.1,1.139,0.146
	c-1.691-0.018-3.322-0.025-4.887-0.023l9.961,0.646c54.342,6.369,169.605,11.879,212.699,13.795l12.979,0.842
	c0,0-2.207-0.197-6.202-0.545c6.345,0.275,9.949,0.424,9.949,0.424l-20.438-1.326C634.813,626.908,519.718,617.479,465.127,616.781z
	 M741.667,314.1c0,0-2.682,2.292-7.527,6.449c7.444-6.856,11.664-10.759,11.664-10.759l-24.377,21.681
	c-52.106,44.823-191.168,165.105-253.688,225.627l-2.979,2.648c0.469-0.375,0.948-0.758,1.426-1.143
	c-1.934,1.879-3.79,3.699-5.563,5.451l11.879-10.564c67.403-55.03,203.088-179.104,253.685-225.624L741.667,314.1z"/>
</svg>
