<svg id="Layer_1" data-name="Layer 1" xmlns="http://www.w3.org/2000/svg" viewBox="0 0 97.45 60.46"><defs><style>.cls-1{fill:#fff;}.cls-1,.cls-2{fill-rule:evenodd;}.cls-2{fill:#231f20;}</style></defs><path class="cls-1" d="M405.35,420h88.74a3.32,3.32,0,0,1,3.32,3.32v36.19l.2,0a.9.9,0,0,1,.84.83V473.9c0,.46-.4,1-.84.83l-.2-.07v2.48a3.32,3.32,0,0,1-3.32,3.32H405.35a3.32,3.32,0,0,1-3.32-3.32v-2.5l-.19.09c-.44.14-.84-.37-.84-.83V460.37a.86.86,0,0,1,.84-.83H402V423.32a3.32,3.32,0,0,1,3.32-3.32ZM452,441.7a22.44,22.44,0,0,1,0,11.2h8.68V441.7Z" transform="translate(-401 -420)"/><path class="cls-2" d="M405.35,420h88.74a3.32,3.32,0,0,1,3.32,3.32v36.21h.2a.85.85,0,0,1,.84.84v13.52a.85.85,0,0,1-.84.84h-.2v2.41a3.32,3.32,0,0,1-3.32,3.32h-11.2c-1-4.31-1.93-8.5-2.93-12.92a2.33,2.33,0,0,0-2.41-1.93H421.89a2.33,2.33,0,0,0-2.41,1.93c-1,4.42-2,8.61-2.93,12.92h-11.2a3.32,3.32,0,0,1-3.32-3.32v-2.41h-.19a.85.85,0,0,1-.84-.84V460.37a.85.85,0,0,1,.84-.84H402V423.32a3.32,3.32,0,0,1,3.32-3.32ZM470,441.54v1.83h1.3v-1.83a5.81,5.81,0,0,1,4,2.34l-1.56.91.65,1.12L476,445a5.82,5.82,0,0,1,.47,2.29,5.92,5.92,0,0,1-.49,2.35l-1.54-.89-.65,1.12,1.53.89a5.79,5.79,0,0,1-4,2.29v-1.75H470v1.75a5.77,5.77,0,0,1-4-2.29l1.53-.89-.65-1.12-1.54.88a5.67,5.67,0,0,1-.49-2.34,5.86,5.86,0,0,1,.47-2.29l1.56.9.65-1.12-1.57-.91a5.85,5.85,0,0,1,4-2.34Zm-40.52,0v1.83h-1.3v-1.83a5.74,5.74,0,0,0-4,2.34l1.57.91-.65,1.12-1.57-.9a5.82,5.82,0,0,0-.47,2.29,5.92,5.92,0,0,0,.49,2.35l1.55-.89.65,1.12-1.54.89a5.81,5.81,0,0,0,4,2.29v-1.75h1.3v1.75a5.77,5.77,0,0,0,4-2.29l-1.53-.89.65-1.12,1.54.88a5.82,5.82,0,0,0,0-4.63l-1.56.9-.65-1.12,1.57-.91a5.85,5.85,0,0,0-4-2.34Zm22.17.53a22.41,22.41,0,0,1,0,10.47H439.19V442.07ZM422,438.76h55.52a1.89,1.89,0,0,1,1.89,1.89V454a1.9,1.9,0,0,1-1.89,1.9H422a1.9,1.9,0,0,1-1.89-1.9v-13.3a1.89,1.89,0,0,1,1.89-1.89Zm48.67,1.36a7.18,7.18,0,1,0,7.18,7.18,7.18,7.18,0,0,0-7.18-7.18Zm-41.82,0a7.18,7.18,0,1,1-7.18,7.18,7.19,7.19,0,0,1,7.18-7.18Zm0,.33A6.85,6.85,0,1,1,422,447.3a6.85,6.85,0,0,1,6.85-6.85Zm41.82,0a6.85,6.85,0,1,0,6.86,6.85,6.85,6.85,0,0,0-6.86-6.85Zm-20.91,1.25h-11v11.2h22V441.7ZM410,425.21h79.39a2.74,2.74,0,0,1,2.73,2.72v33.13a2.73,2.73,0,0,1-2.73,2.72H410a2.73,2.73,0,0,1-2.72-2.72V427.93a2.74,2.74,0,0,1,2.72-2.72Zm39.75,42.93a2.2,2.2,0,1,0,2.2,2.2,2.2,2.2,0,0,0-2.2-2.2Zm0,.69a1.5,1.5,0,0,0-1,.4l1,.8,1-.8a1.5,1.5,0,0,0-1-.4Zm-1.11.48a1.5,1.5,0,0,0-.4,1,1.47,1.47,0,0,0,.41,1l.79-1-.8-1Zm.08,2.13a1.5,1.5,0,0,0,2.06,0l-1-.79-1,.79Zm2.13-.07a1.47,1.47,0,0,0,.41-1,1.5,1.5,0,0,0-.4-1l-.8,1,.79,1Zm-1.1-3a1.94,1.94,0,1,0,1.94,1.94,1.94,1.94,0,0,0-1.94-1.94Zm44.38,6.48a2.2,2.2,0,1,0,2.21,2.2,2.2,2.2,0,0,0-2.21-2.2Zm0-53.7a2.2,2.2,0,1,0,2.21,2.2,2.2,2.2,0,0,0-2.21-2.2Zm-88.86,53.7a2.2,2.2,0,1,1-2.2,2.2,2.21,2.21,0,0,1,2.2-2.2Zm0,.69a1.47,1.47,0,0,1,1,.41l-1,.79-1-.79a1.47,1.47,0,0,1,1-.41Zm1.1.48a1.5,1.5,0,0,1,0,2.06l-.79-1,.79-1Zm-.07,2.14a1.52,1.52,0,0,1-1,.4,1.5,1.5,0,0,1-1-.4l1-.8,1,.8Zm-2.14-.08a1.53,1.53,0,0,1,0-2.06l.8,1-.8,1Zm1.11-3a1.94,1.94,0,1,1-1.94,1.94,1.93,1.93,0,0,1,1.94-1.94Zm0-54a2.2,2.2,0,1,1-2.2,2.2,2.21,2.21,0,0,1,2.2-2.2Zm0,.69a1.47,1.47,0,0,1,1,.41l-1,.79-1-.79a1.47,1.47,0,0,1,1-.41Zm1.1.48a1.5,1.5,0,0,1,0,2.06l-.79-1,.79-1Zm-.07,2.13a1.49,1.49,0,0,1-1,.41,1.5,1.5,0,0,1-1-.4l1-.8,1,.79Zm-2.14-.07a1.53,1.53,0,0,1,0-2.06l.8,1-.8,1Zm1.11-3a1.94,1.94,0,1,1-1.94,1.94,1.93,1.93,0,0,1,1.94-1.94Zm88.86.43a1.44,1.44,0,0,0-1,.41l1,.79,1-.79a1.47,1.47,0,0,0-1-.41Zm-1.1.48a1.5,1.5,0,0,0,0,2.06l.79-1-.79-1Zm.08,2.13a1.46,1.46,0,0,0,1,.41,1.5,1.5,0,0,0,1-.4l-1-.8-1,.79Zm2.13-.07a1.5,1.5,0,0,0,0-2.06l-.79,1,.79,1Zm-1.11-3a1.94,1.94,0,1,0,1.94,1.94,1.94,1.94,0,0,0-1.94-1.94Zm0,54.13a1.44,1.44,0,0,0-1,.41l1,.79,1-.79a1.47,1.47,0,0,0-1-.41Zm-1.1.48a1.5,1.5,0,0,0,0,2.06l.79-1-.79-1Zm.08,2.14a1.51,1.51,0,0,0,2.05,0l-1-.8-1,.8Zm2.13-.08a1.5,1.5,0,0,0,0-2.06l-.79,1,.79,1Zm-1.11-3a1.94,1.94,0,1,0,1.94,1.94,1.94,1.94,0,0,0-1.94-1.94Zm-12.08,5.32h-64.7c.95-4.1,1.89-8.1,2.86-12.3a2.25,2.25,0,0,1,2.35-1.83h54.28a2.25,2.25,0,0,1,2.35,1.83c1,4.2,1.91,8.2,2.86,12.3Zm-17.57-6.85H462a.54.54,0,0,0-.53.54v2.48a.54.54,0,0,0,.53.53h2.53a.54.54,0,0,0,.54-.53v-2.48a.53.53,0,0,0-.54-.54Zm-29.56,0h2.54a.53.53,0,0,1,.52.54v2.48a.54.54,0,0,1-.52.53h-2.54a.53.53,0,0,1-.53-.53v-2.48a.53.53,0,0,1,.53-.54Zm-8.23,1.12a1.73,1.73,0,1,1-1.72,1.73,1.73,1.73,0,0,1,1.72-1.73Zm46,0a1.73,1.73,0,1,0,1.73,1.73,1.72,1.72,0,0,0-1.73-1.73Z" transform="translate(-401 -420)"/></svg>